<?xml version="1.0" encoding="UTF-8"?>
<svg id="Layer_2" data-name="Layer 2" xmlns="http://www.w3.org/2000/svg" viewBox="0 0 1079.97 1018">
  <defs>
    <style>
      .cls-1 {
        fill: #f0f2eb;
      }
    </style>
  </defs>
  <g id="Layer_1-2" data-name="Layer 1">
    <g>
      <path class="cls-1" d="M1079.92,749.83v67.78c0,6.51-4.21,12.26-10.34,14.56l-528.03,184.96c-3.45,1.15-6.89,1.15-10.34,0L10.47,834.47c-6.13-2.29-10.34-8.04-10.34-14.55v-67.78c0-10.73,10.72-18,20.68-14.56l510.42,179.23c3.45,1.15,6.89,1.15,10.34,0l517.69-181.52c9.96-3.45,20.68,3.83,20.68,14.55Z"/>
      <path class="cls-1" d="M1079.92,575.97v67.79c0,6.51-4.21,12.25-10.34,14.55l-528.03,185.35c-3.45,1.15-6.89,1.15-10.34,0L10.47,660.99c-6.13-2.3-10.34-8.04-10.34-14.56v-67.78c0-10.72,10.72-18,20.68-14.55l510.42,179.23c3.45,1.15,6.89,1.15,10.34,0l517.69-181.53c9.96-3.45,20.68,3.83,20.68,14.55v-.38Z"/>
      <path class="cls-1" d="M826.05,4.6l-42.89,42.51c-6.12,6.13-6.12,15.7,0,21.83l42.89,42.51c6.13,6.13,16.09,6.13,21.83,0l42.89-42.51c6.12-6.13,6.12-15.7,0-21.83l-42.89-42.51c-6.13-6.13-16.09-6.13-21.83,0Z"/>
      <path class="cls-1" d="M1076.09,462.98h-.38l-220.94-238.56c-6.11-6.53-16.07-8.04-23.73-3.06l-80.04,50.95L538.47,24.11c-7.66-8.79-21.43-8.79-28.72.42l-204.82,256.56-61.29-41.36c-7.66-4.98-17.62-3.85-24.11,2.68L6.27,464.53c-9.96,7.28-7.66,22.61,4.18,26.79l520.79,178.08c3.43,1.17,6.86,1.17,10.34,0l528.03-181.51c10.34-3.81,13.77-16.83,6.49-24.91ZM389.54,476l-34.07,5.4-16.83-66.64-88.07-65.09,9.54-31.44-27.92-42.86,169.24,130.19,6.49,100.72-18.38-30.27ZM795.79,427.4l-.38.38-22.98,13.02-89.2-93.43-123.65,64.72,40.18-69.7-66.22-99.59,9.54-35.62,13.39-47.47-21.06-19.18-7.66-65.84,376.78,424.72-108.75-72ZM940.17,381.44h-.38l-63.21-27.21-4.93-43.24-16.87-8.08-13.02-40.56,150.86,162.38-52.45-43.29Z"/>
    </g>
  </g>
</svg>