<?xml version="1.0" encoding="UTF-8"?>
<svg id="Layer_2" data-name="Layer 2" xmlns="http://www.w3.org/2000/svg" viewBox="0 0 1080 386.64">
  <defs>
    <style>
      .cls-1 {
        fill: #6ea966;
      }

      .cls-2 {
        fill: #616f39;
      }

      .cls-3 {
        fill: #f0f2eb;
      }
    </style>
  </defs>
  <g id="Layer_1-2" data-name="Layer 1">
    <g>
      <path class="cls-3" d="M0,384.69v-96.31h37.23c24.03,0,38.54,10.02,38.54,26.48,0,11-5.87,18.5-15.07,21.92,9.61,2.69,16.05,8.88,16.05,21.02,0,18.9-16.78,26.89-39.84,26.89H0ZM20.94,328.38h17.35c11.49,0,16.62-3.99,16.62-11.9,0-7.17-5.7-11-16.46-11h-17.44v22.9h-.08ZM20.94,367.49h17.19c10.18,0,17.76-2.28,17.76-11.16,0-8.15-5.87-10.76-17.6-10.76h-17.35v21.92Z"/>
      <path class="cls-3" d="M82.21,348.59c0-20.45,14.91-37.32,36.83-37.32s35.52,16.62,35.52,35.93v6.03h-52.71c1.47,9.45,8.72,15.73,18.9,15.73,7.74,0,14.18-3.75,17.44-10.27l15.56,7.9c-6.19,12.71-17.92,20.05-32.92,20.05-22.08,0-38.7-15.32-38.7-37.97l.08-.08ZM134.27,341.82c-.81-7.33-6.84-12.87-15.48-12.87s-14.75,5.7-16.21,12.87h31.69Z"/>
      <path class="cls-3" d="M158.63,349.32c0-22.08,15.15-37.48,37.23-37.48,7.17,0,14.01,2.61,19.23,6.68l.16-37.4h20.37v68.12c0,21.43-16.29,37.4-38.54,37.4s-38.37-16.87-38.37-37.4l-.08.08ZM215.17,349.32c0-10.02-7.74-18.33-18.17-18.33s-18.09,8.31-18.09,18.33,7.58,18.17,18.09,18.17,18.17-8.15,18.17-18.17Z"/>
      <path class="cls-3" d="M245.4,384.69v-40.66c0-18.17,10.35-32.02,31.37-32.02,4.56,0,9.61.82,13.2,2.45v19.8c-3.42-2.04-7.58-3.02-11.33-3.02-7.98,0-12.87,5.13-12.87,13.61v39.93h-20.37v-.08Z"/>
      <path class="cls-3" d="M289.06,349c0-20.45,16.78-37.32,38.37-37.32s38.54,17.03,38.54,37.32-16.78,37.48-38.54,37.48-38.37-16.87-38.37-37.48ZM345.61,349.16c0-10.02-7.74-18.33-18.17-18.33s-18.09,8.31-18.09,18.33,7.58,18.33,18.09,18.33,18.17-8.31,18.17-18.33Z"/>
      <path class="cls-3" d="M368.66,349.16c0-20.62,16.78-37.48,38.05-37.32,13.61.16,26.23,6.27,32.67,20.04l-16.78,9.13c-3.18-6.19-8.88-10.02-15.89-10.02-10.19,0-17.76,8.15-17.76,18.17s7.58,18.17,17.76,18.17c7.01,0,12.71-3.83,15.89-10.02l16.78,9.13c-6.44,13.77-19.06,19.88-32.67,20.05-21.35.16-38.05-16.87-38.05-37.4v.08Z"/>
      <path class="cls-3" d="M447.28,384.69v-103.48h20.37v60.14h6.76c.73-1.3,1.55-2.61,2.61-3.83l19.64-23.63h24.2l-29.49,35.2,29.33,35.61h-24.2l-19.63-24.04c-.98-1.3-1.87-2.69-2.61-4.16h-6.6v28.19h-20.37Z"/>
      <path class="cls-3" d="M531.45,384.69v-95.66h30.23c19.06,0,34.22,8.72,34.22,27.62,0,14.18-9.04,23.79-23.46,26.16,9.21,3.75,14.01,12.87,20.21,25.34l8.15,16.46h-9.86l-7.58-15.16c-6.68-13.44-12.06-23.22-27.62-23.22h-15.15v38.38h-9.04l-.08.08ZM540.57,297.58v40.25h20.77c14.42,0,25.18-6.68,25.18-20.45s-11.33-19.8-24.93-19.8h-21.02Z"/>
      <path class="cls-3" d="M601.76,349.73c0-20.04,13.93-36.18,34.22-36.18s33.32,14.42,33.32,34.22v5.3h-58.82c1.47,14.18,12.3,24.61,27.05,24.61,9.45,0,18-3.59,23.06-12.47l6.84,3.75c-6.27,11.41-17.19,17.19-29.9,17.19-20.45,0-35.77-15.56-35.77-36.34v-.08ZM660.42,345.9c-.33-14.42-10.43-23.88-24.44-23.88s-23.95,10.43-25.18,23.88h49.7-.08Z"/>
      <path class="cls-3" d="M677.44,370.75l7.33-3.99c4.15,7.99,10.59,10.92,19.06,10.92,9.29,0,17.03-3.99,17.03-12.06,0-17.44-41.23-5.3-41.23-31.62,0-11.57,10.59-19.8,23.95-19.8,11.32,0,19.88,4.89,24.44,13.2l-7.33,4.16c-3.75-7.01-9.7-9.04-17.03-9.04-7.74,0-15.15,4.16-15.15,11.33,0,16.87,41.23,5.3,41.23,31.62,0,12.63-11.9,20.45-25.66,20.45-11.73,0-21.51-5.05-26.64-15.16Z"/>
      <path class="cls-3" d="M737,349.73c0-20.04,13.93-36.18,34.22-36.18s33.32,14.42,33.32,34.22v5.3h-58.82c1.47,14.18,12.3,24.61,27.05,24.61,9.45,0,18.09-3.59,23.06-12.47l6.84,3.75c-6.27,11.41-17.19,17.19-29.9,17.19-20.45,0-35.77-15.56-35.77-36.34v-.08ZM795.74,345.9c-.33-14.42-10.43-23.88-24.44-23.88s-23.95,10.43-25.17,23.88h49.7-.08Z"/>
      <path class="cls-3" d="M811.22,349.73c0-19.8,15.56-36.1,36.34-36.1s36.5,15.73,36.5,36.1v34.96h-8.47v-16.22c-5.3,10.43-16.05,17.6-29.17,17.6-20.04,0-35.2-16.3-35.2-36.34ZM875.18,349.89c0-15.16-12.14-27.79-27.62-27.79s-27.46,12.55-27.46,27.79,12.14,27.78,27.46,27.78,27.62-12.55,27.62-27.78Z"/>
      <path class="cls-3" d="M899.78,384.69v-42.78c0-16.22,9.29-27.62,25.34-27.62,4.32,0,8.47.81,12.06,2.61v9.04c-3.42-2.04-7.33-3.02-11.32-3.02-10.59,0-17.19,7.58-17.19,19.47v42.37h-8.88v-.08Z"/>
      <path class="cls-3" d="M935.88,349.89c0-20.05,16.21-36.18,35.36-36.18,12.3,0,23.46,5.46,29.9,17.19l-7.41,4.32c-5.05-8.88-13.2-13.04-22.49-13.04-14.34,0-26.48,12.55-26.48,27.79s12.14,27.78,26.48,27.78c9.29,0,17.44-4.15,22.49-12.87l7.41,4.15c-6.44,11.73-17.6,17.19-29.9,17.19-19.23.16-35.36-16.22-35.36-36.18v-.16Z"/>
      <path class="cls-3" d="M1013.36,384.69v-101.37h8.88v44.08c5.13-8.15,14.91-13.77,26.23-13.77,19.8,0,31.53,13.93,31.53,34.63v36.34h-8.88v-35.61c0-14.42-8.07-26.89-23.79-26.89-14.42,0-25.09,11.73-25.09,27.62v34.96h-8.88Z"/>
      <path class="cls-2" d="M654.88,159.55v14.42c0,1.39-.9,2.61-2.2,3.1l-112.35,39.36c-.73.25-1.47.25-2.2,0l-110.8-38.87c-1.3-.49-2.2-1.71-2.2-3.1v-14.42c0-2.28,2.28-3.83,4.4-3.1l108.6,38.13c.73.25,1.47.25,2.2,0l110.15-38.62c2.12-.73,4.4.81,4.4,3.1Z"/>
      <path class="cls-1" d="M654.88,122.55v14.42c0,1.38-.9,2.61-2.2,3.1l-112.35,39.44c-.73.24-1.47.24-2.2,0l-110.8-38.87c-1.3-.49-2.2-1.71-2.2-3.1v-14.42c0-2.28,2.28-3.83,4.4-3.1l108.6,38.14c.73.24,1.47.24,2.2,0l110.15-38.62c2.12-.73,4.4.81,4.4,3.1v-.08Z"/>
      <path class="cls-3" d="M600.86.98l-9.12,9.04c-1.3,1.3-1.3,3.34,0,4.64l9.12,9.05c1.3,1.3,3.42,1.3,4.64,0l9.12-9.05c1.3-1.3,1.3-3.34,0-4.64l-9.12-9.04c-1.3-1.3-3.42-1.3-4.64,0Z"/>
      <path class="cls-3" d="M654.06,98.51h-.08l-47.01-50.76c-1.3-1.39-3.42-1.71-5.05-.65l-17.03,10.84-45.22-52.81c-1.63-1.87-4.56-1.87-6.11.09l-43.58,54.59-13.04-8.8c-1.63-1.06-3.75-.82-5.13.57l-45.38,47.26c-2.12,1.55-1.63,4.81.89,5.7l110.81,37.89c.73.25,1.46.25,2.2,0l112.35-38.62c2.2-.81,2.93-3.58,1.38-5.3ZM507.98,101.28l-7.25,1.15-3.58-14.18-18.74-13.85,2.03-6.69-5.94-9.12,36.01,27.7,1.38,21.43-3.91-6.44ZM594.42,90.94l-.08.08-4.89,2.77-18.98-19.88-26.31,13.77,8.55-14.83-14.09-21.19,2.03-7.58,2.85-10.1-4.48-4.08-1.63-14.01,80.17,90.37-23.14-15.32ZM625.14,81.16h-.08l-13.45-5.79-1.05-9.2-3.59-1.72-2.77-8.63,32.1,34.55-11.16-9.21Z"/>
    </g>
  </g>
</svg>