<?xml version="1.0" encoding="UTF-8"?>
<svg id="Layer_2" data-name="Layer 2" xmlns="http://www.w3.org/2000/svg" viewBox="0 0 1080 386.64">
  <defs>
    <style>
      .cls-1 {
        fill: #07323c;
      }
    </style>
  </defs>
  <g id="Layer_1-2" data-name="Layer 1">
    <g>
      <path class="cls-1" d="M60.7,336.77c9.2-3.42,15.07-10.92,15.07-21.92,0-16.46-14.5-26.48-38.54-26.48H0v96.32h36.91c23.05,0,39.84-7.99,39.84-26.89,0-12.15-6.44-18.34-16.05-21.03ZM21.02,305.48h17.44c10.75,0,16.45,3.83,16.45,11,0,7.91-5.13,11.9-16.62,11.9h-17.27v-22.9ZM38.13,367.49h-17.19v-21.92h17.35c11.73,0,17.6,2.61,17.6,10.76,0,8.88-7.58,11.16-17.76,11.16Z"/>
      <path class="cls-1" d="M154.55,347.2c0-19.31-13.6-35.93-35.52-35.93s-36.82,16.87-36.82,37.32l-.09.08c0,22.65,16.62,37.97,38.7,37.97,14.99,0,26.73-7.33,32.92-20.04l-15.56-7.91c-3.26,6.52-9.7,10.27-17.44,10.27-10.18,0-17.43-6.28-18.9-15.73h52.71v-6.03ZM102.57,341.82c1.47-7.17,7.58-12.87,16.22-12.87s14.66,5.54,15.48,12.87h-31.7Z"/>
      <path class="cls-1" d="M215.25,281.12l-.16,37.4c-5.22-4.07-12.06-6.68-19.23-6.68-22.08,0-37.23,15.4-37.23,37.48l.08-.08c0,20.53,16.13,37.4,38.37,37.4s38.54-15.97,38.54-37.4v-68.12h-20.37ZM197,367.49c-10.51,0-18.09-8.15-18.09-18.17s7.66-18.33,18.09-18.33,18.17,8.31,18.17,18.33-7.66,18.17-18.17,18.17Z"/>
      <path class="cls-1" d="M245.4,384.69v-40.66c0-18.17,10.35-32.02,31.37-32.02,4.56,0,9.61.82,13.2,2.45v19.8c-3.42-2.04-7.58-3.02-11.33-3.02-7.98,0-12.87,5.13-12.87,13.61v39.93h-20.37v-.08Z"/>
      <path class="cls-1" d="M327.44,311.68c-21.59,0-38.38,16.86-38.38,37.32s16.63,37.48,38.38,37.48,38.54-17.19,38.54-37.48-16.95-37.32-38.54-37.32ZM327.44,367.49c-10.51,0-18.09-8.31-18.09-18.33s7.66-18.34,18.09-18.34,18.17,8.32,18.17,18.34-7.66,18.33-18.17,18.33Z"/>
      <path class="cls-1" d="M368.66,349.16c0-20.62,16.78-37.48,38.05-37.32,13.61.16,26.23,6.27,32.67,20.04l-16.78,9.13c-3.18-6.19-8.88-10.02-15.89-10.02-10.19,0-17.76,8.15-17.76,18.17s7.58,18.17,17.76,18.17c7.01,0,12.71-3.83,15.89-10.02l16.78,9.13c-6.44,13.77-19.06,19.88-32.67,20.05-21.35.16-38.05-16.87-38.05-37.4v.08Z"/>
      <path class="cls-1" d="M447.28,384.69v-103.48h20.37v60.14h6.76c.73-1.3,1.55-2.61,2.61-3.83l19.64-23.63h24.2l-29.49,35.2,29.33,35.61h-24.2l-19.63-24.04c-.98-1.3-1.87-2.69-2.61-4.16h-6.6v28.19h-20.37Z"/>
      <path class="cls-1" d="M592.63,368.14c-6.19-12.46-11-21.59-20.2-25.34,14.42-2.36,23.46-11.98,23.46-26.15,0-18.91-15.15-27.63-34.22-27.63h-30.22v95.67l.08-.09h9.04v-38.38h15.15c15.57,0,20.94,9.78,27.62,23.23l7.58,15.15h9.86l-8.15-16.46ZM540.57,337.83v-40.25h21.02c13.61,0,24.93,6.03,24.93,19.8s-10.75,20.45-25.17,20.45h-20.78Z"/>
      <path class="cls-1" d="M669.3,347.77c0-19.8-13.04-34.22-33.32-34.22s-34.22,16.13-34.22,36.18v.08c0,20.78,15.31,36.34,35.76,36.34,12.71,0,23.63-5.78,29.9-17.19l-6.84-3.75c-5.05,8.88-13.61,12.47-23.06,12.47-14.74,0-25.58-10.43-27.05-24.61h58.83v-5.3ZM610.8,345.9c1.22-13.45,11.16-23.88,25.18-23.88s24.11,9.46,24.44,23.88h-49.62Z"/>
      <path class="cls-1" d="M677.44,370.75l7.33-3.99c4.15,7.99,10.59,10.92,19.06,10.92,9.29,0,17.03-3.99,17.03-12.06,0-17.44-41.23-5.3-41.23-31.62,0-11.57,10.59-19.8,23.95-19.8,11.32,0,19.88,4.89,24.44,13.2l-7.33,4.16c-3.75-7.01-9.7-9.04-17.03-9.04-7.74,0-15.15,4.16-15.15,11.33,0,16.87,41.23,5.3,41.23,31.62,0,12.63-11.9,20.45-25.66,20.45-11.73,0-21.51-5.05-26.64-15.16Z"/>
      <path class="cls-1" d="M804.54,347.77c0-19.8-13.03-34.22-33.32-34.22s-34.22,16.13-34.22,36.18v.08c0,20.78,15.32,36.34,35.77,36.34,12.71,0,23.62-5.78,29.9-17.19l-6.85-3.75c-4.97,8.88-13.6,12.47-23.05,12.47-14.75,0-25.58-10.43-27.05-24.61h58.82v-5.3ZM746.13,345.9c1.22-13.45,11.16-23.88,25.17-23.88s24.12,9.46,24.44,23.88h-49.61Z"/>
      <path class="cls-1" d="M847.56,313.63c-20.78,0-36.34,16.3-36.34,36.1s15.16,36.34,35.2,36.34c13.12,0,23.87-7.17,29.17-17.6v16.22h8.47v-34.96c0-20.37-15.73-36.1-36.5-36.1ZM847.56,377.68c-15.32,0-27.46-12.55-27.46-27.79s11.98-27.78,27.46-27.78,27.62,12.63,27.62,27.78-12.3,27.79-27.62,27.79Z"/>
      <path class="cls-1" d="M899.78,384.69v-42.78c0-16.22,9.29-27.62,25.34-27.62,4.32,0,8.47.81,12.06,2.61v9.04c-3.42-2.04-7.33-3.02-11.32-3.02-10.59,0-17.19,7.58-17.19,19.47v42.37h-8.88v-.08Z"/>
      <path class="cls-1" d="M935.88,349.89c0-20.05,16.21-36.18,35.36-36.18,12.3,0,23.46,5.46,29.9,17.19l-7.41,4.32c-5.05-8.88-13.2-13.04-22.49-13.04-14.34,0-26.48,12.55-26.48,27.79s12.14,27.78,26.48,27.78c9.29,0,17.44-4.15,22.49-12.87l7.41,4.15c-6.44,11.73-17.6,17.19-29.9,17.19-19.23.16-35.36-16.22-35.36-36.18v-.16Z"/>
      <path class="cls-1" d="M1013.36,384.69v-101.37h8.88v44.08c5.13-8.15,14.91-13.77,26.23-13.77,19.8,0,31.53,13.93,31.53,34.63v36.34h-8.88v-35.61c0-14.42-8.07-26.89-23.79-26.89-14.42,0-25.09,11.73-25.09,27.62v34.96h-8.88Z"/>
      <path class="cls-1" d="M654.88,159.55v14.42c0,1.39-.9,2.61-2.2,3.1l-112.35,39.36c-.73.25-1.47.25-2.2,0l-110.8-38.87c-1.3-.49-2.2-1.71-2.2-3.1v-14.42c0-2.28,2.28-3.83,4.4-3.1l108.6,38.13c.73.25,1.47.25,2.2,0l110.15-38.62c2.12-.73,4.4.81,4.4,3.1Z"/>
      <path class="cls-1" d="M654.88,122.55v14.42c0,1.38-.9,2.61-2.2,3.1l-112.35,39.44c-.73.24-1.47.24-2.2,0l-110.8-38.87c-1.3-.49-2.2-1.71-2.2-3.1v-14.42c0-2.28,2.28-3.83,4.4-3.1l108.6,38.14c.73.24,1.47.24,2.2,0l110.15-38.62c2.12-.73,4.4.81,4.4,3.1v-.08Z"/>
      <path class="cls-1" d="M600.86.98l-9.12,9.04c-1.3,1.3-1.3,3.34,0,4.64l9.12,9.05c1.3,1.3,3.42,1.3,4.64,0l9.12-9.05c1.3-1.3,1.3-3.34,0-4.64l-9.12-9.04c-1.3-1.3-3.42-1.3-4.64,0Z"/>
      <path class="cls-1" d="M654.06,98.51h-.08l-47.01-50.76c-1.3-1.39-3.42-1.71-5.05-.65l-17.03,10.84-45.22-52.81c-1.63-1.87-4.56-1.87-6.11.09l-43.58,54.59-13.04-8.8c-1.63-1.06-3.75-.82-5.13.57l-45.38,47.26c-2.12,1.55-1.63,4.81.89,5.7l110.81,37.89c.73.25,1.46.25,2.2,0l112.35-38.62c2.2-.81,2.93-3.58,1.38-5.3ZM507.98,101.28l-7.25,1.15-3.58-14.18-18.74-13.85,2.03-6.69-5.94-9.12,36.01,27.7,1.38,21.43-3.91-6.44ZM594.42,90.94l-.08.08-4.89,2.77-18.98-19.88-26.31,13.77,8.55-14.83-14.09-21.19,2.03-7.58,2.85-10.1-4.48-4.08-1.63-14.01,80.17,90.37-23.14-15.32ZM625.14,81.16h-.08l-13.45-5.79-1.05-9.2-3.59-1.72-2.77-8.63,32.1,34.55-11.16-9.21Z"/>
    </g>
  </g>
</svg>