<?xml version="1.0" encoding="UTF-8"?>
<svg id="Layer_2" data-name="Layer 2" xmlns="http://www.w3.org/2000/svg" viewBox="0 0 1639.99 256.96">
  <defs>
    <style>
      .cls-1 {
        fill: #07323c;
      }
    </style>
  </defs>
  <g id="Layer_1-2" data-name="Layer 1">
    <g>
      <path class="cls-1" d="M358.79,189.04v-114.26h44.17c28.51,0,45.72,11.89,45.72,31.42,0,13.05-6.96,21.94-17.88,26,11.4,3.19,19.04,10.54,19.04,24.94,0,22.43-19.91,31.9-47.26,31.9h-43.78ZM383.63,122.25h20.59c13.63,0,19.72-4.74,19.72-14.11,0-8.51-6.77-13.05-19.52-13.05h-20.68v27.16h-.1ZM383.63,168.65h20.39c12.08,0,21.07-2.71,21.07-13.24,0-9.67-6.96-12.76-20.88-12.76h-20.59v26Z"/>
      <path class="cls-1" d="M456.31,146.22c0-24.26,17.69-44.27,43.69-44.27s42.14,19.72,42.14,42.63v7.15h-62.53c1.74,11.21,10.34,18.66,22.42,18.66,9.18,0,16.82-4.45,20.68-12.18l18.46,9.38c-7.34,15.08-21.26,23.78-39.05,23.78-26.19,0-45.91-18.17-45.91-45.05l.1-.1ZM518.07,138.2c-.97-8.7-8.12-15.27-18.36-15.27s-17.49,6.77-19.23,15.27h37.6Z"/>
      <path class="cls-1" d="M546.97,147.09c0-26.2,17.98-44.47,44.17-44.47,8.51,0,16.62,3.09,22.81,7.93l.19-44.37h24.16v80.81c0,25.42-19.33,44.37-45.72,44.37s-45.52-20.01-45.52-44.37l-.1.1ZM614.04,147.09c0-11.89-9.18-21.75-21.55-21.75s-21.46,9.86-21.46,21.75,8.99,21.56,21.46,21.56,21.55-9.67,21.55-21.56Z"/>
      <path class="cls-1" d="M649.9,189.04v-48.24c0-21.56,12.27-37.99,37.21-37.99,5.41,0,11.41.97,15.66,2.9v23.49c-4.06-2.42-8.99-3.58-13.43-3.58-9.47,0-15.27,6.09-15.27,16.14v47.37h-24.16v-.1Z"/>
      <path class="cls-1" d="M701.71,146.71c0-24.26,19.91-44.27,45.52-44.27s45.72,20.2,45.72,44.27-19.91,44.47-45.72,44.47-45.52-20.01-45.52-44.47ZM768.78,146.9c0-11.89-9.18-21.75-21.55-21.75s-21.46,9.86-21.46,21.75,8.99,21.75,21.46,21.75,21.55-9.86,21.55-21.75Z"/>
      <path class="cls-1" d="M796.13,146.9c0-24.46,19.91-44.46,45.14-44.27,16.14.19,31.12,7.44,38.76,23.78l-19.91,10.83c-3.77-7.35-10.54-11.89-18.85-11.89-12.08,0-21.07,9.67-21.07,21.56s8.99,21.56,21.07,21.56c8.31,0,15.08-4.54,18.85-11.89l19.91,10.83c-7.63,16.34-22.61,23.59-38.76,23.78-25.32.19-45.14-20.01-45.14-44.37v.1Z"/>
      <path class="cls-1" d="M889.4,189.04v-122.76h24.16v71.34h8.02c.87-1.55,1.84-3.09,3.09-4.54l23.29-28.03h28.7l-34.99,41.76,34.8,42.24h-28.7l-23.29-28.52c-1.16-1.55-2.22-3.19-3.09-4.93h-7.83v33.45h-24.16Z"/>
      <path class="cls-1" d="M989.24,189.04v-113.48h35.86c22.62,0,40.59,10.34,40.59,32.77,0,16.82-10.73,28.23-27.83,31.03,10.92,4.45,16.62,15.27,23.97,30.06l9.67,19.53h-11.7l-8.99-17.98c-7.92-15.95-14.3-27.55-32.76-27.55h-17.98v45.53h-10.73l-.1.1ZM1000.07,85.71v47.75h24.65c17.11,0,29.86-7.93,29.86-24.26s-13.43-23.49-29.57-23.49h-24.94Z"/>
      <path class="cls-1" d="M1072.65,147.58c0-23.78,16.53-42.92,40.59-42.92s39.53,17.11,39.53,40.6v6.28h-69.78c1.74,16.82,14.59,29.19,32.09,29.19,11.21,0,21.36-4.25,27.35-14.79l8.12,4.45c-7.44,13.53-20.39,20.4-35.47,20.4-24.26,0-42.43-18.46-42.43-43.11v-.1ZM1142.24,143.03c-.39-17.11-12.37-28.32-28.99-28.32s-28.41,12.37-29.86,28.32h58.96-.1Z"/>
      <path class="cls-1" d="M1162.44,172.51l8.7-4.74c4.93,9.47,12.56,12.95,22.62,12.95,11.02,0,20.2-4.74,20.2-14.31,0-20.69-48.9-6.28-48.9-37.51,0-13.73,12.56-23.49,28.41-23.49,13.43,0,23.58,5.8,28.99,15.66l-8.7,4.93c-4.45-8.31-11.5-10.73-20.2-10.73-9.18,0-17.98,4.93-17.98,13.44,0,20.01,48.91,6.28,48.91,37.5,0,14.98-14.11,24.26-30.45,24.26-13.92,0-25.52-5.99-31.6-17.98Z"/>
      <path class="cls-1" d="M1233.09,147.58c0-23.78,16.53-42.92,40.59-42.92s39.53,17.11,39.53,40.6v6.28h-69.78c1.74,16.82,14.59,29.19,32.09,29.19,11.21,0,21.46-4.25,27.35-14.79l8.12,4.45c-7.44,13.53-20.39,20.4-35.47,20.4-24.26,0-42.43-18.46-42.43-43.11v-.1ZM1302.78,143.03c-.39-17.11-12.37-28.32-28.99-28.32s-28.41,12.37-29.86,28.32h58.96-.1Z"/>
      <path class="cls-1" d="M1321.14,147.58c0-23.49,18.46-42.82,43.11-42.82s43.3,18.66,43.3,42.82v41.47h-10.05v-19.24c-6.28,12.37-19.04,20.88-34.6,20.88-23.77,0-41.75-19.33-41.75-43.11ZM1397.01,147.77c0-17.98-14.4-32.96-32.76-32.96s-32.57,14.89-32.57,32.96,14.4,32.96,32.57,32.96,32.76-14.89,32.76-32.96Z"/>
      <path class="cls-1" d="M1426.2,189.04v-50.75c0-19.24,11.02-32.77,30.06-32.77,5.12,0,10.05.97,14.3,3.09v10.73c-4.06-2.42-8.7-3.58-13.43-3.58-12.56,0-20.39,8.99-20.39,23.1v50.27h-10.54v-.1Z"/>
      <path class="cls-1" d="M1469.02,147.77c0-23.78,19.23-42.92,41.95-42.92,14.59,0,27.83,6.48,35.47,20.4l-8.8,5.12c-5.99-10.54-15.66-15.47-26.67-15.47-17.01,0-31.41,14.89-31.41,32.96s14.4,32.96,31.41,32.96c11.02,0,20.68-4.93,26.67-15.27l8.8,4.93c-7.64,13.92-20.88,20.4-35.47,20.4-22.81.19-41.95-19.24-41.95-42.92v-.19Z"/>
      <path class="cls-1" d="M1560.93,189.04v-120.25h10.53v52.29c6.09-9.67,17.69-16.34,31.12-16.34,23.48,0,37.4,16.53,37.4,41.08v43.11h-10.53v-42.24c0-17.11-9.57-31.9-28.22-31.9-17.11,0-29.77,13.92-29.77,32.77v41.47h-10.53Z"/>
      <path class="cls-1" d="M272.59,189.27v17.11c0,1.64-1.06,3.09-2.61,3.67l-133.28,46.69c-.87.29-1.74.29-2.61,0L2.64,210.63c-1.55-.58-2.61-2.03-2.61-3.67v-17.11c0-2.71,2.71-4.54,5.22-3.67l128.83,45.24c.87.29,1.74.29,2.61,0l130.67-45.82c2.51-.87,5.22.97,5.22,3.67Z"/>
      <path class="cls-1" d="M272.59,145.38v17.11c0,1.64-1.06,3.09-2.61,3.67l-133.28,46.78c-.87.29-1.74.29-2.61,0L2.64,166.84c-1.55-.58-2.61-2.03-2.61-3.67v-17.11c0-2.71,2.71-4.54,5.22-3.67l128.83,45.24c.87.29,1.74.29,2.61,0l130.67-45.82c2.51-.87,5.22.97,5.22,3.67v-.1Z"/>
      <path class="cls-1" d="M208.51,1.16l-10.83,10.73c-1.55,1.55-1.55,3.96,0,5.51l10.83,10.73c1.55,1.55,4.06,1.55,5.51,0l10.82-10.73c1.55-1.55,1.55-3.96,0-5.51l-10.82-10.73c-1.55-1.55-4.06-1.55-5.51,0Z"/>
      <path class="cls-1" d="M271.53,116.87l-55.77-60.22c-1.55-1.64-4.06-2.03-5.99-.77l-20.2,12.86L135.92,6.09c-1.93-2.22-5.41-2.22-7.25.1l-51.71,64.76-15.46-10.44c-1.93-1.26-4.45-.97-6.09.68L1.58,117.25c-2.51,1.84-1.93,5.7,1.06,6.77l131.44,44.95c.87.29,1.74.29,2.61,0l133.28-45.82c2.61-.97,3.48-4.25,1.64-6.28h-.1ZM98.33,120.15l-8.6,1.35-4.25-16.82-22.23-16.43,2.42-7.93-7.06-10.83,42.72,32.87,1.64,25.42-4.64-7.64ZM200.78,107.97l-5.8,3.29-22.52-23.59-31.22,16.34,10.15-17.59-16.72-25.13,2.42-8.99,3.38-11.99-5.32-4.83-1.93-16.63,95.1,107.2-27.45-18.17-.1.1ZM237.21,96.28l-15.95-6.86-1.26-10.92-4.25-2.03-3.29-10.25,38.08,40.99-13.24-10.92h-.1Z"/>
    </g>
  </g>
</svg>